<svg width="186" height="147" viewBox="0 0 186 147" fill="none" xmlns="http://www.w3.org/2000/svg">
<path d="M25.0885 41.224C25.3765 40.792 25.7845 40.384 26.3125 40C26.8885 39.616 27.4885 39.28 28.1125 38.992C28.7845 38.704 29.4805 38.488 30.2005 38.344C30.9205 38.152 31.5685 38.056 32.1445 38.056C36.0325 38.056 38.9605 39.328 40.9285 41.872C42.9445 44.416 43.9525 48.304 43.9525 53.536C43.9525 54.736 43.8805 55.96 43.7365 57.208C43.6405 58.456 43.5685 59.728 43.5205 61.024C43.5205 62.32 43.5685 63.592 43.6645 64.84C43.8085 66.088 44.1205 67.312 44.6005 68.512C44.7445 68.8 44.8885 69.112 45.0325 69.448C45.2245 69.832 45.3925 70.192 45.5365 70.528C45.6805 70.912 45.7525 71.248 45.7525 71.536C45.7525 71.824 45.6325 72.064 45.3925 72.256C45.2005 72.4 44.9125 72.448 44.5285 72.4C44.1445 72.4 43.7365 72.328 43.3045 72.184C42.8725 72.088 42.4405 71.968 42.0085 71.824C41.6245 71.68 41.3365 71.536 41.1445 71.392C40.2805 70.816 39.5845 70 39.0565 68.944C38.5765 67.888 38.2165 66.712 37.9765 65.416C37.7365 64.072 37.5925 62.704 37.5445 61.312C37.4965 59.872 37.4725 58.504 37.4725 57.208C37.4725 55.72 37.4005 54.28 37.2565 52.888C37.1125 51.448 36.8245 50.176 36.3925 49.072C35.9605 47.92 35.3365 46.984 34.5205 46.264C33.7525 45.496 32.7445 45.04 31.4965 44.896C30.5845 44.8 29.5285 44.872 28.3285 45.112C27.1765 45.304 26.1685 45.904 25.3045 46.912C25.3045 49.504 25.2805 52.12 25.2325 54.76C25.1845 57.352 25.1125 60.016 25.0165 62.752C24.9685 64.144 24.7765 65.44 24.4405 66.64C24.1045 67.792 23.6725 68.8 23.1445 69.664C22.6645 70.576 22.1125 71.272 21.4885 71.752C20.9125 72.28 20.3125 72.544 19.6885 72.544C19.3045 72.544 19.0645 72.064 18.9685 71.104C18.8725 70.144 18.8245 69.016 18.8245 67.72C18.8725 66.472 18.9205 65.2 18.9685 63.904C19.0645 62.608 19.1125 61.6 19.1125 60.88C19.1125 58 19.1365 55 19.1845 51.88C19.2805 48.712 19.2085 45.328 18.9685 41.728C18.2965 41.296 17.6725 40.768 17.0965 40.144C16.5685 39.52 16.2085 38.8 16.0165 37.984C15.9685 37.792 15.9445 37.552 15.9445 37.264C15.9445 36.928 15.9685 36.616 16.0165 36.328C16.0645 36.04 16.1365 35.8 16.2325 35.608C16.3765 35.368 16.5685 35.248 16.8085 35.248C17.0485 35.248 17.3365 35.296 17.6725 35.392C18.0085 35.488 18.3205 35.584 18.6085 35.68C18.9445 35.824 19.3525 35.992 19.8325 36.184C20.3125 36.376 20.7925 36.592 21.2725 36.832C21.7525 37.024 22.2085 37.24 22.6405 37.48C23.1205 37.72 23.5045 37.936 23.7925 38.128C24.2245 38.464 24.5365 38.872 24.7285 39.352C24.9685 39.784 25.0885 40.36 25.0885 41.08V41.224ZM63.5973 67.792C61.1013 67.744 58.9173 67.192 57.0453 66.136C55.2213 65.032 53.7333 63.64 52.5813 61.96C51.4293 60.232 50.6373 58.336 50.2053 56.272C49.7733 54.16 49.7013 52.096 49.9893 50.08C50.2773 47.872 50.8773 45.856 51.7893 44.032C52.7493 42.208 53.9493 40.672 55.3893 39.424C56.8293 38.176 58.5093 37.24 60.4293 36.616C62.3493 35.944 64.4373 35.68 66.6933 35.824C68.6133 35.968 70.2213 36.472 71.5173 37.336C72.8133 38.2 73.8693 39.184 74.6853 40.288C75.5013 41.392 76.1013 42.496 76.4853 43.6C76.8693 44.704 77.1093 45.544 77.2053 46.12C77.6853 46.504 78.0933 47.008 78.4293 47.632C78.7653 48.256 78.9333 48.688 78.9333 48.928C78.7893 49.648 77.8053 50.2 75.9813 50.584C75.2613 50.728 74.0613 50.896 72.3813 51.088C70.7013 51.28 68.8773 51.472 66.9093 51.664C64.9893 51.856 63.0933 52 61.2213 52.096C59.3973 52.192 57.9813 52.216 56.9733 52.168C56.8773 53.08 56.8773 54.112 56.9733 55.264C57.0693 56.416 57.3573 57.52 57.8373 58.576C58.3173 59.584 59.0373 60.448 59.9973 61.168C60.9573 61.888 62.2533 62.272 63.8853 62.32C64.9413 62.416 66.0693 62.344 67.2693 62.104C68.5173 61.864 69.3813 61.648 69.8613 61.456C71.6853 60.832 73.0053 60.328 73.8213 59.944C74.6373 59.56 75.2133 59.56 75.5493 59.944C75.8373 60.232 75.7893 60.88 75.4053 61.888C75.0693 62.896 74.1813 63.976 72.7413 65.128C71.3013 66.232 69.7413 66.952 68.0613 67.288C66.3813 67.624 64.8933 67.792 63.5973 67.792ZM70.9413 45.976C70.7973 45.256 70.5093 44.536 70.0773 43.816C69.6933 43.048 69.1653 42.4 68.4933 41.872C67.8693 41.296 67.1253 40.864 66.2613 40.576C65.4453 40.288 64.5573 40.24 63.5973 40.432C62.6853 40.576 61.8693 40.912 61.1493 41.44C60.4773 41.968 59.8773 42.592 59.3493 43.312C58.8213 44.032 58.3893 44.8 58.0533 45.616C57.7173 46.432 57.4773 47.224 57.3333 47.992C59.9253 47.608 62.3013 47.248 64.4613 46.912C66.6213 46.576 68.7813 46.264 70.9413 45.976ZM85.8042 39.064C85.1322 39.16 84.4122 39.184 83.6442 39.136C82.9242 39.04 82.2522 38.896 81.6282 38.704C81.0522 38.464 80.5482 38.176 80.1162 37.84C79.7322 37.456 79.5162 37.048 79.4682 36.616C79.4682 36.328 79.5642 36.04 79.7562 35.752C79.9962 35.464 80.2602 35.2 80.5482 34.96C80.8362 34.72 81.1482 34.504 81.4842 34.312C81.8202 34.072 82.0842 33.904 82.2762 33.808C82.6602 33.616 83.1162 33.424 83.6442 33.232C84.2202 33.04 84.7962 32.896 85.3722 32.8C85.9962 32.656 86.5722 32.56 87.1002 32.512C87.6762 32.416 88.1322 32.392 88.4682 32.44C88.8522 32.488 89.2362 32.68 89.6202 33.016C90.0522 33.352 90.4362 33.76 90.7722 34.24C91.1562 34.672 91.4922 35.128 91.7802 35.608C92.0682 36.088 92.2842 36.496 92.4282 36.832C93.3882 36.064 94.6122 35.392 96.1002 34.816C97.5882 34.24 98.9562 33.952 100.204 33.952C102.604 33.952 104.764 34.528 106.684 35.68C108.604 36.784 110.212 38.248 111.508 40.072C112.852 41.848 113.836 43.888 114.46 46.192C115.132 48.448 115.444 50.728 115.396 53.032C115.3 55.432 114.796 57.544 113.884 59.368C113.02 61.192 111.892 62.728 110.5 63.976C109.156 65.224 107.668 66.16 106.036 66.784C104.452 67.408 102.916 67.72 101.428 67.72C100.708 67.72 99.9402 67.552 99.1242 67.216C98.3562 66.88 97.6362 66.472 96.9642 65.992C96.3402 65.512 95.8362 64.984 95.4522 64.408C95.1162 63.832 95.0442 63.328 95.2362 62.896C95.3802 62.608 95.6442 62.464 96.0282 62.464C96.4602 62.464 96.9882 62.488 97.6122 62.536C98.2362 62.536 98.9082 62.536 99.6282 62.536C100.396 62.536 101.164 62.416 101.932 62.176C102.748 61.984 103.516 61.576 104.236 60.952C105.004 60.328 105.676 59.608 106.252 58.792C106.828 57.928 107.284 56.992 107.62 55.984C108.004 54.976 108.196 53.968 108.196 52.96C108.196 51.184 107.932 49.48 107.404 47.848C106.924 46.216 106.276 44.8 105.46 43.6C104.644 42.352 103.708 41.368 102.652 40.648C101.644 39.928 100.612 39.568 99.5562 39.568C98.5482 39.568 97.3962 39.832 96.1002 40.36C94.8522 40.888 93.7482 41.56 92.7882 42.376C92.8362 43.864 92.8602 45.28 92.8602 46.624C92.9082 47.92 92.9322 49.504 92.9322 51.376V67.792C92.9322 69.952 92.7882 72.16 92.5002 74.416C92.2122 76.672 91.8042 78.784 91.2762 80.752C90.7962 82.768 90.1722 84.52 89.4042 86.008C88.6842 87.544 87.8682 88.624 86.9562 89.248C86.7642 89.344 86.5002 89.344 86.1642 89.248C85.8762 89.2 85.5642 89.08 85.2282 88.888C84.8922 88.696 84.5802 88.432 84.2922 88.096C84.0522 87.76 83.9082 87.376 83.8602 86.944C84.1482 86.032 84.4122 84.88 84.6522 83.488C84.8922 82.144 85.0842 80.656 85.2282 79.024C85.4202 77.44 85.5642 75.76 85.6602 73.984C85.7562 72.208 85.8042 70.456 85.8042 68.728V39.064ZM143.062 47.056C143.062 46.048 142.918 45.04 142.63 44.032C142.342 42.976 141.886 42.04 141.262 41.224C140.638 40.36 139.822 39.664 138.814 39.136C137.806 38.608 136.558 38.344 135.07 38.344C133.87 38.344 132.694 38.44 131.542 38.632C130.438 38.824 129.454 39.04 128.59 39.28C125.23 40.144 123.358 40.024 122.974 38.92C122.782 38.344 122.974 37.672 123.55 36.904C124.126 36.136 124.99 35.416 126.142 34.744C127.342 34.072 128.758 33.496 130.39 33.016C132.07 32.536 133.894 32.296 135.862 32.296C137.83 32.296 139.63 32.632 141.262 33.304C142.942 33.976 144.382 34.912 145.582 36.112C146.782 37.264 147.718 38.632 148.39 40.216C149.062 41.8 149.398 43.504 149.398 45.328V61.024C149.398 61.744 149.422 62.68 149.47 63.832C149.518 64.984 149.662 66.016 149.902 66.928C150.286 68.368 150.334 69.232 150.046 69.52C149.806 69.712 149.422 69.784 148.894 69.736C148.414 69.736 147.934 69.64 147.454 69.448C146.83 69.208 146.206 68.704 145.582 67.936C145.006 67.216 144.502 66.232 144.07 64.984C143.83 65.272 143.398 65.656 142.774 66.136C142.198 66.568 141.454 67 140.542 67.432C139.63 67.912 138.598 68.32 137.446 68.656C136.342 68.992 135.166 69.184 133.918 69.232C131.422 69.28 129.31 69.016 127.582 68.44C125.854 67.912 124.438 67.168 123.334 66.208C122.278 65.248 121.486 64.144 120.958 62.896C120.478 61.6 120.214 60.256 120.166 58.864C120.118 57.424 120.358 56.008 120.886 54.616C121.414 53.224 122.254 52 123.406 50.944C124.558 49.888 126.046 49.048 127.87 48.424C129.694 47.8 131.878 47.512 134.422 47.56C135.814 47.608 137.35 47.872 139.03 48.352C140.71 48.832 142.054 49.432 143.062 50.152V47.056ZM143.134 54.04C141.79 53.56 140.302 53.152 138.67 52.816C137.086 52.48 135.478 52.336 133.846 52.384C129.094 52.48 126.718 54.424 126.718 58.216C126.718 60.088 127.294 61.336 128.446 61.96C129.646 62.584 131.422 62.896 133.774 62.896C134.542 62.896 135.358 62.8 136.222 62.608C137.134 62.416 137.998 62.176 138.814 61.888C139.678 61.552 140.47 61.168 141.19 60.736C141.958 60.304 142.606 59.872 143.134 59.44V54.04ZM159.465 25.096C159.369 25.048 159.009 24.808 158.385 24.376C157.809 23.944 157.161 23.416 156.441 22.792C155.769 22.168 155.145 21.52 154.569 20.848C153.993 20.176 153.705 19.552 153.705 18.976C153.705 18.88 153.801 18.76 153.993 18.616C154.137 18.424 154.329 18.256 154.569 18.112C154.857 17.92 155.121 17.776 155.361 17.68C155.649 17.584 155.913 17.536 156.153 17.536C156.729 17.584 157.377 17.728 158.097 17.968C158.865 18.16 159.633 18.424 160.401 18.76C161.217 19.096 161.985 19.456 162.705 19.84C163.425 20.224 164.049 20.584 164.577 20.92C165.537 21.544 166.137 22.336 166.377 23.296C166.617 24.208 166.737 25.24 166.737 26.392V42.016C166.737 44.176 166.713 46.36 166.665 48.568C166.665 50.776 166.545 53.032 166.305 55.336C166.209 56.44 166.017 57.736 165.729 59.224C165.441 60.664 165.057 62.08 164.577 63.472C164.145 64.816 163.641 66.016 163.065 67.072C162.489 68.128 161.913 68.776 161.337 69.016C160.905 69.016 160.497 68.872 160.113 68.584C159.729 68.296 159.393 67.936 159.105 67.504C158.865 67.12 158.673 66.736 158.529 66.352C158.385 65.968 158.337 65.68 158.385 65.488C158.577 64.384 158.745 63.448 158.889 62.68C159.033 61.864 159.129 60.928 159.177 59.872C159.273 58.816 159.345 57.496 159.393 55.912C159.441 54.328 159.465 52.168 159.465 49.432V25.096Z" fill="white"/>
<path d="M4.0755 100.6C4.1235 99.448 4.4835 98.416 5.1555 97.504C5.8275 96.544 6.6915 95.752 7.7475 95.128C8.8515 94.456 10.0755 93.952 11.4195 93.616C12.7635 93.28 14.1315 93.112 15.5235 93.112C17.0595 93.112 18.6195 93.352 20.2035 93.832C21.8355 94.264 23.2035 94.816 24.3075 95.488C24.6915 95.728 25.1235 96.088 25.6035 96.568C26.0835 97.048 26.2515 97.504 26.1075 97.936C26.0595 98.128 25.8915 98.392 25.6035 98.728C25.3155 99.016 24.9555 99.28 24.5235 99.52C24.1395 99.76 23.7075 99.952 23.2275 100.096C22.7475 100.24 22.2915 100.216 21.8595 100.024C20.6595 99.544 19.6515 99.232 18.8355 99.088C18.0195 98.944 17.1555 98.824 16.2435 98.728C14.4195 98.584 12.9795 98.704 11.9235 99.088C10.8675 99.472 10.2915 100 10.1955 100.672C10.0995 101.488 10.2915 102.184 10.7715 102.76C11.2995 103.288 11.8755 103.696 12.4995 103.984C14.1795 104.704 15.8595 105.376 17.5395 106C19.2675 106.576 20.8275 107.272 22.2195 108.088C23.7555 109 24.9555 110.152 25.8195 111.544C26.7315 112.936 27.1395 114.688 27.0435 116.8C26.9475 118.048 26.5635 119.2 25.8915 120.256C25.2195 121.312 24.3555 122.224 23.2995 122.992C22.2915 123.76 21.1395 124.336 19.8435 124.72C18.5475 125.152 17.2275 125.368 15.8835 125.368C13.4835 125.368 11.2515 124.864 9.1875 123.856C7.1715 122.848 5.6355 121.384 4.5795 119.464C4.2915 118.984 4.0755 118.408 3.9315 117.736C3.7875 117.064 3.7395 116.44 3.7875 115.864C3.8835 115.24 4.0515 114.712 4.2915 114.28C4.5795 113.8 4.9635 113.512 5.4435 113.416C5.9235 113.32 6.3555 113.536 6.7395 114.064C7.1715 114.592 7.6755 115.288 8.2515 116.152C9.0195 117.304 10.0995 118.168 11.4915 118.744C12.8835 119.272 14.2275 119.56 15.5235 119.608C17.0595 119.656 18.3555 119.368 19.4115 118.744C20.4675 118.072 21.0675 117.328 21.2115 116.512C21.3555 115.696 21.1875 114.952 20.7075 114.28C20.2275 113.608 19.6035 113.032 18.8355 112.552C18.0675 112.024 17.2275 111.592 16.3155 111.256C15.4515 110.92 14.7075 110.656 14.0835 110.464C12.6915 110.032 11.3715 109.552 10.1235 109.024C8.8755 108.448 7.7955 107.776 6.8835 107.008C5.9715 106.24 5.2515 105.352 4.7235 104.344C4.1955 103.288 3.9795 102.04 4.0755 100.6ZM37.5735 90.448C37.5735 88.96 37.4775 87.784 37.2855 86.92C37.1415 86.056 36.7335 85.168 36.0615 84.256C35.9175 84.112 35.8215 83.896 35.7735 83.608C35.7735 83.272 35.7975 82.936 35.8455 82.6C35.8935 82.264 35.9895 81.952 36.1335 81.664C36.2775 81.376 36.4455 81.16 36.6375 81.016C37.0215 80.824 37.5975 80.896 38.3655 81.232C39.1335 81.52 39.9015 81.928 40.6695 82.456C41.4855 82.936 42.2055 83.464 42.8295 84.04C43.4535 84.568 43.8375 84.976 43.9815 85.264C44.4135 85.792 44.6295 86.344 44.6295 86.92C44.3895 87.784 44.2455 88.552 44.1975 89.224C44.1975 89.848 44.1975 90.592 44.1975 91.456V93.112C45.3015 92.968 46.3815 92.824 47.4375 92.68C48.4935 92.488 49.5735 92.296 50.6775 92.104C50.9655 92.056 51.2775 92.056 51.6135 92.104C51.9975 92.152 52.3575 92.248 52.6935 92.392C53.0295 92.488 53.3175 92.632 53.5575 92.824C53.7975 92.968 53.9175 93.112 53.9175 93.256C53.9175 93.64 53.7975 94.072 53.5575 94.552C53.3655 94.984 53.0775 95.416 52.6935 95.848C52.3575 96.232 51.9735 96.568 51.5415 96.856C51.1575 97.144 50.7975 97.288 50.4615 97.288C49.0695 97.288 47.7255 97.36 46.4295 97.504L44.1975 97.72V107.224C44.1975 108.904 44.2215 110.608 44.2695 112.336C44.3175 114.016 44.5095 115.576 44.8455 117.016C45.1815 118.408 45.7335 119.56 46.5015 120.472C47.2695 121.336 48.3735 121.768 49.8135 121.768C50.1495 121.768 50.5095 121.744 50.8935 121.696C51.3255 121.648 51.7095 121.624 52.0455 121.624C52.4295 121.576 52.7415 121.6 52.9815 121.696C53.2695 121.744 53.4135 121.888 53.4135 122.128C53.4135 122.32 53.3175 122.584 53.1255 122.92C52.9815 123.256 52.7175 123.616 52.3335 124C51.9975 124.336 51.5175 124.648 50.8935 124.936C50.3175 125.272 49.6215 125.488 48.8055 125.584C46.9815 125.824 45.2295 125.608 43.5495 124.936C41.9175 124.264 40.6935 123.328 39.8775 122.128C38.7255 120.496 38.0535 118.528 37.8615 116.224C37.6695 113.92 37.5735 111.016 37.5735 107.512V98.44C36.9015 98.488 36.2295 98.512 35.5575 98.512C34.8855 98.512 34.1655 98.512 33.3975 98.512C33.1095 98.512 32.7255 98.44 32.2455 98.296C31.8135 98.152 31.3815 97.96 30.9495 97.72C30.5175 97.432 30.1335 97.12 29.7975 96.784C29.5095 96.448 29.3655 96.088 29.3655 95.704C29.4135 95.416 29.5095 95.128 29.6535 94.84C29.8455 94.504 30.0135 94.312 30.1575 94.264C30.5895 94.264 31.0455 94.264 31.5255 94.264C32.0055 94.216 32.4855 94.168 32.9655 94.12L37.5735 93.616V90.448ZM56.1248 109.168C56.1248 106.912 56.5328 104.752 57.3488 102.688C58.2128 100.624 59.4128 98.8 60.9488 97.216C62.4848 95.632 64.3088 94.384 66.4208 93.472C68.5328 92.512 70.8608 92.032 73.4048 92.032C75.5168 92.032 77.4368 92.488 79.1648 93.4C80.9408 94.312 82.4528 95.536 83.7008 97.072C84.9488 98.608 85.9088 100.36 86.5808 102.328C87.3008 104.296 87.6608 106.336 87.6608 108.448C87.6608 110.608 87.2528 112.768 86.4368 114.928C85.6688 117.04 84.5648 118.936 83.1248 120.616C81.6848 122.248 79.9568 123.568 77.9408 124.576C75.9248 125.632 73.6928 126.16 71.2448 126.16C68.9408 126.16 66.8528 125.728 64.9808 124.864C63.1088 124.048 61.5008 122.896 60.1568 121.408C58.8608 119.872 57.8528 118.072 57.1328 116.008C56.4608 113.896 56.1248 111.616 56.1248 109.168ZM73.2608 98.224C71.6768 98.224 70.2128 98.536 68.8688 99.16C67.5248 99.736 66.3488 100.552 65.3408 101.608C64.3328 102.616 63.5408 103.816 62.9648 105.208C62.4368 106.552 62.1728 107.968 62.1728 109.456C62.1728 110.704 62.3888 111.952 62.8208 113.2C63.3008 114.4 63.9488 115.504 64.7648 116.512C65.5808 117.52 66.5648 118.336 67.7168 118.96C68.9168 119.584 70.2128 119.896 71.6048 119.896C72.9968 119.896 74.3168 119.56 75.5648 118.888C76.8608 118.168 77.9648 117.256 78.8768 116.152C79.8368 115.048 80.5808 113.8 81.1088 112.408C81.6848 110.968 81.9728 109.528 81.9728 108.088C81.9728 106.936 81.7568 105.784 81.3248 104.632C80.9408 103.48 80.3648 102.424 79.5968 101.464C78.8768 100.504 77.9648 99.736 76.8608 99.16C75.8048 98.536 74.6048 98.224 73.2608 98.224ZM100.288 98.224C100.576 97.792 100.984 97.384 101.512 97C102.088 96.616 102.688 96.28 103.312 95.992C103.984 95.704 104.68 95.488 105.4 95.344C106.12 95.152 106.768 95.056 107.344 95.056C111.232 95.056 114.16 96.328 116.128 98.872C118.144 101.416 119.152 105.304 119.152 110.536C119.152 111.736 119.08 112.96 118.936 114.208C118.84 115.456 118.768 116.728 118.72 118.024C118.72 119.32 118.768 120.592 118.864 121.84C119.008 123.088 119.32 124.312 119.8 125.512C119.944 125.8 120.088 126.112 120.232 126.448C120.424 126.832 120.592 127.192 120.736 127.528C120.88 127.912 120.952 128.248 120.952 128.536C120.952 128.824 120.832 129.064 120.592 129.256C120.4 129.4 120.112 129.448 119.728 129.4C119.344 129.4 118.936 129.328 118.504 129.184C118.072 129.088 117.64 128.968 117.208 128.824C116.824 128.68 116.536 128.536 116.344 128.392C115.48 127.816 114.784 127 114.256 125.944C113.776 124.888 113.416 123.712 113.176 122.416C112.936 121.072 112.792 119.704 112.744 118.312C112.696 116.872 112.672 115.504 112.672 114.208C112.672 112.72 112.6 111.28 112.456 109.888C112.312 108.448 112.024 107.176 111.592 106.072C111.16 104.92 110.536 103.984 109.72 103.264C108.952 102.496 107.944 102.04 106.696 101.896C105.784 101.8 104.728 101.872 103.528 102.112C102.376 102.304 101.368 102.904 100.504 103.912C100.504 106.504 100.48 109.12 100.432 111.76C100.384 114.352 100.312 117.016 100.216 119.752C100.168 121.144 99.9758 122.44 99.6398 123.64C99.3038 124.792 98.8718 125.8 98.3438 126.664C97.8638 127.576 97.3118 128.272 96.6878 128.752C96.1118 129.28 95.5118 129.544 94.8878 129.544C94.5038 129.544 94.2638 129.064 94.1678 128.104C94.0718 127.144 94.0238 126.016 94.0238 124.72C94.0718 123.472 94.1198 122.2 94.1678 120.904C94.2638 119.608 94.3118 118.6 94.3118 117.88C94.3118 115 94.3358 112 94.3838 108.88C94.4798 105.712 94.4078 102.328 94.1678 98.728C93.4958 98.296 92.8718 97.768 92.2958 97.144C91.7678 96.52 91.4078 95.8 91.2158 94.984C91.1678 94.792 91.1438 94.552 91.1438 94.264C91.1438 93.928 91.1678 93.616 91.2158 93.328C91.2638 93.04 91.3358 92.8 91.4318 92.608C91.5758 92.368 91.7678 92.248 92.0078 92.248C92.2478 92.248 92.5358 92.296 92.8718 92.392C93.2078 92.488 93.5198 92.584 93.8078 92.68C94.1438 92.824 94.5518 92.992 95.0318 93.184C95.5118 93.376 95.9918 93.592 96.4718 93.832C96.9518 94.024 97.4078 94.24 97.8398 94.48C98.3198 94.72 98.7038 94.936 98.9918 95.128C99.4238 95.464 99.7358 95.872 99.9277 96.352C100.168 96.784 100.288 97.36 100.288 98.08V98.224ZM128.141 80.584C127.565 80.392 127.061 80.248 126.629 80.152C126.245 80.008 125.861 79.912 125.477 79.864C125.141 79.768 124.781 79.696 124.397 79.648C124.013 79.552 123.557 79.432 123.029 79.288C122.74 79.192 122.476 79.024 122.236 78.784C121.996 78.544 121.924 78.304 122.02 78.064C122.116 77.68 122.356 77.296 122.74 76.912C123.125 76.528 123.509 76.264 123.893 76.12C124.229 75.976 124.781 75.808 125.549 75.616C126.365 75.424 127.205 75.256 128.069 75.112C128.981 74.968 129.821 74.872 130.589 74.824C131.405 74.728 131.98 74.752 132.316 74.896C133.277 75.28 133.925 76.12 134.261 77.416C134.597 78.664 134.789 80.152 134.837 81.88C134.933 85.576 135.005 89.176 135.053 92.68C135.101 96.184 135.101 99.664 135.053 103.12C135.581 103.216 136.229 103.264 136.997 103.264C137.765 103.264 138.413 103.192 138.941 103.048C139.805 102.376 140.741 101.56 141.749 100.6C142.805 99.592 143.813 98.608 144.773 97.648C145.733 96.64 146.573 95.704 147.293 94.84C148.061 93.976 148.613 93.352 148.949 92.968C150.005 91.672 150.773 90.568 151.253 89.656C151.733 88.696 152.237 88.216 152.765 88.216C153.197 88.216 153.605 88.576 153.989 89.296C154.373 90.016 154.565 90.664 154.565 91.24C154.565 92.056 154.469 92.8 154.277 93.472C154.133 94.096 153.869 94.744 153.485 95.416C153.149 96.088 152.693 96.784 152.117 97.504C151.541 98.224 150.821 99.04 149.957 99.952C148.805 101.2 147.677 102.352 146.573 103.408C145.469 104.464 144.317 105.472 143.117 106.432C143.741 107.488 144.509 108.808 145.421 110.392C146.381 111.928 147.341 113.464 148.301 115C149.261 116.488 150.149 117.832 150.965 119.032C151.829 120.184 152.477 120.904 152.909 121.192C154.157 121.72 154.997 122.2 155.429 122.632C155.909 123.016 156.149 123.352 156.149 123.64C156.149 123.88 155.981 124.072 155.645 124.216C155.309 124.408 154.877 124.552 154.349 124.648C153.821 124.792 153.245 124.888 152.621 124.936C151.997 124.984 151.397 125.008 150.821 125.008C150.005 124.96 149.261 124.816 148.589 124.576C147.917 124.384 147.317 123.976 146.789 123.352C146.117 122.632 145.421 121.768 144.701 120.76C143.981 119.752 143.261 118.696 142.541 117.592C141.869 116.488 141.197 115.408 140.525 114.352C139.853 113.248 139.277 112.264 138.797 111.4C138.173 110.392 137.645 109.6 137.213 109.024C136.829 108.4 136.061 107.992 134.909 107.8L134.621 111.904C134.573 112.576 134.453 113.44 134.261 114.496C134.117 115.504 133.901 116.56 133.613 117.664C133.325 118.72 132.989 119.728 132.605 120.688C132.221 121.6 131.813 122.296 131.381 122.776C131.141 123.016 130.757 123.304 130.229 123.64C129.701 123.928 129.125 124.144 128.501 124.288C127.925 124.48 127.373 124.576 126.845 124.576C126.365 124.576 126.053 124.408 125.909 124.072C125.813 123.832 125.861 123.472 126.053 122.992C126.245 122.464 126.413 122.032 126.557 121.696C127.373 119.872 127.901 117.568 128.141 114.784C128.429 112 128.549 108.736 128.501 104.992L128.141 80.584ZM160.451 100.6C160.499 99.448 160.859 98.416 161.531 97.504C162.203 96.544 163.067 95.752 164.123 95.128C165.227 94.456 166.451 93.952 167.795 93.616C169.139 93.28 170.507 93.112 171.899 93.112C173.435 93.112 174.995 93.352 176.579 93.832C178.211 94.264 179.579 94.816 180.683 95.488C181.067 95.728 181.499 96.088 181.979 96.568C182.459 97.048 182.627 97.504 182.483 97.936C182.435 98.128 182.267 98.392 181.979 98.728C181.691 99.016 181.331 99.28 180.899 99.52C180.515 99.76 180.083 99.952 179.603 100.096C179.123 100.24 178.667 100.216 178.235 100.024C177.035 99.544 176.027 99.232 175.211 99.088C174.395 98.944 173.531 98.824 172.619 98.728C170.795 98.584 169.355 98.704 168.299 99.088C167.243 99.472 166.667 100 166.571 100.672C166.475 101.488 166.667 102.184 167.146 102.76C167.675 103.288 168.251 103.696 168.875 103.984C170.555 104.704 172.235 105.376 173.915 106C175.643 106.576 177.203 107.272 178.595 108.088C180.131 109 181.331 110.152 182.195 111.544C183.107 112.936 183.515 114.688 183.419 116.8C183.323 118.048 182.939 119.2 182.267 120.256C181.595 121.312 180.731 122.224 179.675 122.992C178.667 123.76 177.515 124.336 176.219 124.72C174.923 125.152 173.603 125.368 172.259 125.368C169.859 125.368 167.627 124.864 165.562 123.856C163.547 122.848 162.011 121.384 160.955 119.464C160.667 118.984 160.451 118.408 160.307 117.736C160.163 117.064 160.115 116.44 160.163 115.864C160.259 115.24 160.427 114.712 160.667 114.28C160.955 113.8 161.339 113.512 161.819 113.416C162.299 113.32 162.731 113.536 163.115 114.064C163.547 114.592 164.051 115.288 164.627 116.152C165.395 117.304 166.475 118.168 167.867 118.744C169.259 119.272 170.603 119.56 171.899 119.608C173.435 119.656 174.731 119.368 175.787 118.744C176.843 118.072 177.443 117.328 177.587 116.512C177.731 115.696 177.563 114.952 177.083 114.28C176.603 113.608 175.979 113.032 175.211 112.552C174.443 112.024 173.603 111.592 172.691 111.256C171.827 110.92 171.083 110.656 170.459 110.464C169.067 110.032 167.747 109.552 166.499 109.024C165.251 108.448 164.171 107.776 163.259 107.008C162.347 106.24 161.627 105.352 161.099 104.344C160.571 103.288 160.355 102.04 160.451 100.6Z" fill="white"/>
</svg>
