<svg width="122" height="123" viewBox="0 0 122 123" fill="none" xmlns="http://www.w3.org/2000/svg">
<g clip-path="url(#clip0)">
<path fill-rule="evenodd" clip-rule="evenodd" d="M66.17 24.52C75.95 36.65 80.72 50.98 80.1 64.1C75.58 53.02 68.56 41.79 59.25 31.45L56.13 34.57C55.78 34.92 55.2 34.92 54.85 34.57L44.98 24.7C44.63 24.35 44.63 23.77 44.98 23.42L48.01 20.39C37.4 11.2 25.96 4.36999 14.75 0.129994C27.97 -0.860006 42.56 3.69999 54.95 13.44L56.31 12.08C56.66 11.73 57.24 11.73 57.59 12.08L67.46 21.95C67.81 22.3 67.81 22.88 67.46 23.23L66.17 24.52ZM49.32 58.69V54.64L68.43 56.68L49.32 58.69ZM57.83 74.36L54.96 71.49L69.92 59.42L57.83 74.36ZM111.77 35.18L114.09 40.2L89.24 48.6L111.77 35.18ZM92.26 20.63L97.45 22.54L85.82 46.05L92.26 20.63ZM102.7 57.6L121.2 69.07V122.88H25.73C45.17 103.44 71.77 97.27 87.15 70.64C92.99 60.52 91.01 49.7 102.7 57.6ZM44.6 27.81L52.59 35.8L9.64 78.76C7.44 80.96 3.84 80.96 1.65 78.76C-0.55 76.56 -0.55 72.96 1.65 70.77L44.6 27.81Z" fill="#F5F5F5"/>
</g>
<defs>
<clipPath id="clip0">
<rect width="121.2" height="122.88" fill="white"/>
</clipPath>
</defs>
</svg>
